# xmcd
#
# Track frame offsets: 
#        150
#        16088
#        34586
#        54109
#        74910
#        95146
#        114275
#        134160
#        154439
#
# Disc length: 2246 seconds
#
# Revision: 0
# Processed by: cddbd v1.5.2PL0 Copyright (c) Steve Scherf et al.
# Submitted via: ExactAudioCopyFreeDBPlugin 1.0
#
DISCID=7c08c409
DTITLE=Hazy&The Babydolls - Accentuate
DYEAR=1900
DGENRE=Blues
TTITLE0=you should know better
TTITLE1=stoop down
TTITLE2=heart of stone
TTITLE3=fool no more
TTITLE4=I want  a little girl
TTITLE5=ring out the old
TTITLE6=same old blues
TTITLE7=got what I want
TTITLE8=accentuate the positive
EXTD=
EXTT0=
EXTT1=
EXTT2=
EXTT3=
EXTT4=
EXTT5=
EXTT6=
EXTT7=
EXTT8=
PLAYORDER=
